<mxfile host="Electron" modified="2023-08-09T11:37:20.511Z" agent="Mozilla/5.0 (X11; Linux x86_64) AppleWebKit/537.36 (KHTML, like Gecko) draw.io/21.6.5 Chrome/114.0.5735.243 Electron/25.3.1 Safari/537.36" etag="m65WNdth2jxJov2d9NVG" version="21.6.5" type="device">
  <diagram id="3228e29e-7158-1315-38df-8450db1d8a1d" name="Page-1">
    <mxGraphModel dx="1917" dy="1111" grid="1" gridSize="10" guides="1" tooltips="1" connect="1" arrows="1" fold="1" page="1" pageScale="1" pageWidth="1169" pageHeight="827" background="none" math="0" shadow="0">
      <root>
        <mxCell id="0" />
        <mxCell id="1" parent="0" />
        <mxCell id="sY1C57XjbQgiQz_sWaC3-21607" value="" style="group" vertex="1" connectable="0" parent="1">
          <mxGeometry x="100" y="90" width="990" height="600" as="geometry" />
        </mxCell>
        <mxCell id="sY1C57XjbQgiQz_sWaC3-21605" value="" style="ellipse;whiteSpace=wrap;html=1;shadow=0;fillColor=#e51400;strokeColor=#B20000;opacity=60;align=left;fontColor=#ffffff;container=0;" vertex="1" parent="sY1C57XjbQgiQz_sWaC3-21607">
          <mxGeometry width="990" height="600" as="geometry" />
        </mxCell>
        <mxCell id="sY1C57XjbQgiQz_sWaC3-21583" value="" style="ellipse;whiteSpace=wrap;html=1;shadow=0;fillColor=#1ba1e2;strokeColor=#006EAF;opacity=60;align=left;fontColor=#ffffff;container=0;" vertex="1" parent="sY1C57XjbQgiQz_sWaC3-21607">
          <mxGeometry x="25.430000000000007" y="34" width="784.57" height="466" as="geometry" />
        </mxCell>
        <mxCell id="sY1C57XjbQgiQz_sWaC3-21588" value="Account: Change email address" style="rounded=0;whiteSpace=wrap;html=1;fillColor=#d80073;strokeColor=none;strokeWidth=2;fontColor=#ffffff;" vertex="1" parent="sY1C57XjbQgiQz_sWaC3-21607">
          <mxGeometry x="259.5" y="148.69" width="80" height="50" as="geometry" />
        </mxCell>
        <mxCell id="sY1C57XjbQgiQz_sWaC3-21589" value="Account: Disable MFA" style="rounded=0;whiteSpace=wrap;html=1;fillColor=#d80073;strokeColor=none;strokeWidth=2;fontColor=#ffffff;" vertex="1" parent="sY1C57XjbQgiQz_sWaC3-21607">
          <mxGeometry x="260" y="203.69" width="79" height="42.63" as="geometry" />
        </mxCell>
        <mxCell id="sY1C57XjbQgiQz_sWaC3-21590" value="Account:&lt;br&gt;Set limtis" style="rounded=0;whiteSpace=wrap;html=1;fillColor=#d80073;strokeColor=none;strokeWidth=2;fontColor=#ffffff;" vertex="1" parent="sY1C57XjbQgiQz_sWaC3-21607">
          <mxGeometry x="168.5" y="198.69" width="79" height="42.63" as="geometry" />
        </mxCell>
        <mxCell id="sY1C57XjbQgiQz_sWaC3-21593" value="Account: Set user agent" style="rounded=0;whiteSpace=wrap;html=1;fillColor=#d80073;strokeColor=none;strokeWidth=2;fontColor=#ffffff;" vertex="1" parent="sY1C57XjbQgiQz_sWaC3-21607">
          <mxGeometry x="169.5" y="310" width="79" height="42.63" as="geometry" />
        </mxCell>
        <mxCell id="sY1C57XjbQgiQz_sWaC3-21594" value="Account: Remove data placement" style="rounded=0;whiteSpace=wrap;html=1;fillColor=#d80073;strokeColor=none;strokeWidth=2;fontColor=#ffffff;" vertex="1" parent="sY1C57XjbQgiQz_sWaC3-21607">
          <mxGeometry x="169" y="361.53999999999996" width="80" height="54.46" as="geometry" />
        </mxCell>
        <mxCell id="sY1C57XjbQgiQz_sWaC3-21577" value="" style="ellipse;whiteSpace=wrap;html=1;shadow=0;fillColor=#e3c800;strokeColor=#B09500;opacity=60;align=left;fontColor=#000000;container=0;" vertex="1" parent="sY1C57XjbQgiQz_sWaC3-21607">
          <mxGeometry x="271" y="234" width="450" height="354.75" as="geometry" />
        </mxCell>
        <mxCell id="sY1C57XjbQgiQz_sWaC3-21578" value="Account: Suspend" style="rounded=0;whiteSpace=wrap;html=1;fillColor=#d80073;strokeColor=none;strokeWidth=2;fontColor=#ffffff;" vertex="1" parent="sY1C57XjbQgiQz_sWaC3-21607">
          <mxGeometry x="384" y="270" width="81" height="40" as="geometry" />
        </mxCell>
        <mxCell id="sY1C57XjbQgiQz_sWaC3-21579" value="Account:&lt;br&gt;Re-activate" style="rounded=0;whiteSpace=wrap;html=1;fillColor=#d80073;strokeColor=none;strokeWidth=2;fontColor=#ffffff;" vertex="1" parent="sY1C57XjbQgiQz_sWaC3-21607">
          <mxGeometry x="384" y="332.53" width="81" height="40" as="geometry" />
        </mxCell>
        <mxCell id="sY1C57XjbQgiQz_sWaC3-21580" value="Account: Delete the account is clean" style="rounded=0;whiteSpace=wrap;html=1;fillColor=#d80073;strokeColor=none;strokeWidth=2;fontColor=#ffffff;" vertex="1" parent="sY1C57XjbQgiQz_sWaC3-21607">
          <mxGeometry x="377.01" y="389.53999999999996" width="95.22" height="60" as="geometry" />
        </mxCell>
        <mxCell id="sY1C57XjbQgiQz_sWaC3-21581" value="&lt;font style=&quot;font-size: 23px;&quot;&gt;&lt;b&gt;Finance&lt;br&gt;manager&lt;br&gt;&lt;/b&gt;&lt;/font&gt;" style="text;html=1;strokeColor=none;fillColor=none;align=center;verticalAlign=middle;whiteSpace=wrap;rounded=0;horizontal=1;" vertex="1" parent="sY1C57XjbQgiQz_sWaC3-21607">
          <mxGeometry x="384" y="504.75" width="102.88" height="58" as="geometry" />
        </mxCell>
        <mxCell id="sY1C57XjbQgiQz_sWaC3-21567" value="" style="ellipse;whiteSpace=wrap;html=1;shadow=0;fillColor=#60a917;strokeColor=#2D7600;opacity=60;align=left;fontColor=#ffffff;" vertex="1" parent="sY1C57XjbQgiQz_sWaC3-21607">
          <mxGeometry x="480" y="270" width="450" height="210" as="geometry" />
        </mxCell>
        <mxCell id="sY1C57XjbQgiQz_sWaC3-21570" value="Account: View Information" style="rounded=0;whiteSpace=wrap;html=1;fillColor=#d80073;strokeColor=none;strokeWidth=2;fontColor=#ffffff;" vertex="1" parent="sY1C57XjbQgiQz_sWaC3-21607">
          <mxGeometry x="576.28" y="303.54" width="81" height="40" as="geometry" />
        </mxCell>
        <mxCell id="sY1C57XjbQgiQz_sWaC3-21571" value="Bucket: View Information" style="rounded=0;whiteSpace=wrap;html=1;strokeWidth=2;strokeColor=none;" vertex="1" parent="sY1C57XjbQgiQz_sWaC3-21607">
          <mxGeometry x="576.5" y="352.20000000000005" width="81" height="40" as="geometry" />
        </mxCell>
        <mxCell id="sY1C57XjbQgiQz_sWaC3-21572" value="Project: View Information" style="rounded=0;whiteSpace=wrap;html=1;fillColor=#2F5B7C;strokeColor=none;strokeWidth=2;fontColor=#FFFFFF;" vertex="1" parent="sY1C57XjbQgiQz_sWaC3-21607">
          <mxGeometry x="576.5" y="399.53999999999996" width="81" height="40" as="geometry" />
        </mxCell>
        <mxCell id="sY1C57XjbQgiQz_sWaC3-21573" value="&lt;font style=&quot;font-size: 23px;&quot;&gt;&lt;b&gt;Viewer&lt;/b&gt;&lt;/font&gt;" style="text;html=1;strokeColor=none;fillColor=none;align=center;verticalAlign=middle;whiteSpace=wrap;rounded=0;horizontal=1;" vertex="1" parent="sY1C57XjbQgiQz_sWaC3-21607">
          <mxGeometry x="800" y="368.0799999999999" width="81.12" height="31.46" as="geometry" />
        </mxCell>
        <mxCell id="sY1C57XjbQgiQz_sWaC3-21595" value="Account: Delete the account is&amp;nbsp; NOT clean" style="rounded=0;whiteSpace=wrap;html=1;fillColor=#d80073;strokeColor=none;strokeWidth=2;fontColor=#ffffff;" vertex="1" parent="sY1C57XjbQgiQz_sWaC3-21607">
          <mxGeometry x="520" y="497.0000000000001" width="95.22" height="60" as="geometry" />
        </mxCell>
        <mxCell id="sY1C57XjbQgiQz_sWaC3-21596" value="&lt;font style=&quot;font-size: 23px;&quot;&gt;&lt;b&gt;Customer&lt;br&gt;Support&lt;br&gt;&lt;/b&gt;&lt;/font&gt;" style="text;html=1;strokeColor=none;fillColor=none;align=center;verticalAlign=middle;whiteSpace=wrap;rounded=0;horizontal=1;" vertex="1" parent="sY1C57XjbQgiQz_sWaC3-21607">
          <mxGeometry x="50" y="245.53999999999996" width="102.88" height="58" as="geometry" />
        </mxCell>
        <mxCell id="sY1C57XjbQgiQz_sWaC3-21597" value="Project: Set user agent" style="rounded=0;whiteSpace=wrap;html=1;fillColor=#2F5B7C;strokeColor=none;strokeWidth=2;fontColor=#FFFFFF;" vertex="1" parent="sY1C57XjbQgiQz_sWaC3-21607">
          <mxGeometry x="360" y="113.68999999999994" width="81" height="40" as="geometry" />
        </mxCell>
        <mxCell id="sY1C57XjbQgiQz_sWaC3-21598" value="Project: Send invitation" style="rounded=0;whiteSpace=wrap;html=1;fillColor=#2F5B7C;strokeColor=none;strokeWidth=2;fontColor=#FFFFFF;" vertex="1" parent="sY1C57XjbQgiQz_sWaC3-21607">
          <mxGeometry x="360" y="163.68999999999994" width="81" height="40" as="geometry" />
        </mxCell>
        <mxCell id="sY1C57XjbQgiQz_sWaC3-21599" value="Project: Set data placement" style="rounded=0;whiteSpace=wrap;html=1;fillColor=#2F5B7C;strokeColor=none;strokeWidth=2;fontColor=#FFFFFF;" vertex="1" parent="sY1C57XjbQgiQz_sWaC3-21607">
          <mxGeometry x="450" y="100" width="80" height="50" as="geometry" />
        </mxCell>
        <mxCell id="sY1C57XjbQgiQz_sWaC3-21600" value="Account: Set data placement" style="rounded=0;whiteSpace=wrap;html=1;fillColor=#d80073;strokeColor=none;strokeWidth=2;fontColor=#ffffff;" vertex="1" parent="sY1C57XjbQgiQz_sWaC3-21607">
          <mxGeometry x="168.5" y="250" width="80" height="51.32" as="geometry" />
        </mxCell>
        <mxCell id="sY1C57XjbQgiQz_sWaC3-21601" value="Project: Remove data placement" style="rounded=0;whiteSpace=wrap;html=1;fillColor=#2F5B7C;strokeColor=none;strokeWidth=2;fontColor=#FFFFFF;" vertex="1" parent="sY1C57XjbQgiQz_sWaC3-21607">
          <mxGeometry x="450" y="153.69" width="80" height="50" as="geometry" />
        </mxCell>
        <mxCell id="sY1C57XjbQgiQz_sWaC3-21602" value="Bucket: Set user agent" style="rounded=0;whiteSpace=wrap;html=1;strokeWidth=2;strokeColor=none;" vertex="1" parent="sY1C57XjbQgiQz_sWaC3-21607">
          <mxGeometry x="540" y="100.00000000000006" width="81" height="40" as="geometry" />
        </mxCell>
        <mxCell id="sY1C57XjbQgiQz_sWaC3-21603" value="Bucket: Set data placement" style="rounded=0;whiteSpace=wrap;html=1;strokeWidth=2;strokeColor=none;" vertex="1" parent="sY1C57XjbQgiQz_sWaC3-21607">
          <mxGeometry x="541" y="150" width="80" height="50" as="geometry" />
        </mxCell>
        <mxCell id="sY1C57XjbQgiQz_sWaC3-21604" value="Bucket: Remove data placement" style="rounded=0;whiteSpace=wrap;html=1;strokeWidth=2;strokeColor=none;" vertex="1" parent="sY1C57XjbQgiQz_sWaC3-21607">
          <mxGeometry x="630" y="140" width="80" height="50" as="geometry" />
        </mxCell>
        <mxCell id="sY1C57XjbQgiQz_sWaC3-21606" value="&lt;font style=&quot;font-size: 23px;&quot;&gt;&lt;b&gt;Administrator&lt;/b&gt;&lt;/font&gt;" style="text;html=1;strokeColor=none;fillColor=none;align=center;verticalAlign=middle;whiteSpace=wrap;rounded=0;horizontal=1;" vertex="1" parent="sY1C57XjbQgiQz_sWaC3-21607">
          <mxGeometry x="810" y="246.32" width="170" height="33.68" as="geometry" />
        </mxCell>
      </root>
    </mxGraphModel>
  </diagram>
</mxfile>
